<?xml version="1.0" encoding="UTF-8" standalone="no"?>
<!-- Created with Inkscape (http://www.inkscape.org/) by Marsupilami -->
<svg
   xmlns:svg="http://www.w3.org/2000/svg"
   xmlns="http://www.w3.org/2000/svg"
   version="1.0"
   width="1024"
   height="393"
   viewBox="0 0 91.613625 35.116123"
   id="svg7762">
  <defs
     id="defs7764" />
  <g
     transform="translate(-329.19318,-514.80415)"
     id="layer1">
    <path
       d="M 19.375,0 C 8.67375,0 -2.3980451e-17,7.8700005 0,17.5625 C 0,27.255 8.67375,35.125001 19.375,35.125 L 19.375,24.96875 C 19.408751,24.667499 19.67375,24.37125 20,24.125 C 21.4025,23.205 22.3775,22.8425 23.03125,23.5 C 23.15375,23.62375 23.4525,23.83875 23.8125,23.8125 C 25.200001,23.71125 27.04,23.54875 28.875,23.625 L 28.96875,22 L 29.78125,23.6875 C 30.613751,23.762499 31.4225,23.90125 32.15625,24.125 L 32.5625,22.53125 L 33.09375,24.46875 C 33.668751,24.736251 34.16625,25.09 34.5625,25.53125 C 34.70375,25.68875 34.81,25.6625 34.90625,25.46875 C 35.103749,25.06875 35.435,24.12 35.125,23.28125 C 34.097499,20.49625 24.735,19.18625 19.75,24 C 19.711546,24.034721 19.686417,24.062546 19.65625,24.09375 C 19.75913,23.789904 19.903156,23.397948 20.09375,23.03125 C 21.0975,21.223749 22.3375,20.06125 23.3125,20.75 C 23.45125,20.84875 23.72,20.9175 24.03125,20.78125 C 25.182499,20.304999 26.6075,19.6875 28.125,19.21875 L 27.875,17.59375 L 29,18.96875 C 29.93125,18.723751 30.88375,18.54 31.8125,18.5 L 31.6875,16.84375 L 32.78125,18.53125 C 33.613749,18.585 34.4175,18.765 35.15625,19.125 C 35.346251,19.216249 35.43,19.1525 35.4375,18.9375 C 35.455001,18.4325 35.40625,17.26875 34.5625,16.53125 C 32.080002,14.319999 23.56125,15.825 20,22.4375 C 19.494877,23.432067 19.292824,24.406566 19.25,24.625 C 18.061403,23.834618 16.492015,22.815053 15.65625,23.53125 C 15.525,23.64375 15.235,23.838749 14.875,23.8125 C 13.5075,23.7125 11.68625,23.556251 9.875,23.625 L 9.8125,22 L 8.96875,23.6875 C 8.13125,23.7575 7.3362502,23.875 6.59375,24.09375 L 6.21875,22.5625 L 5.6875,24.4375 C 5.07375,24.71125 4.5424998,25.06625 4.125,25.53125 C 3.98375,25.68875 3.8762499,25.66125 3.78125,25.46875 C 3.5825,25.0675 3.2537499,24.15125 3.5625,23.3125 C 4.55625,20.61875 12.750001,18.865 19.09375,24.125 C 18.74,23.195 16.4225,20.23 15.3125,20.9375 C 15.16875,21.02875 14.90625,21.07375 14.59375,20.9375 C 13.44625,20.4625 12.0125,19.874999 10.5,19.40625 L 10.75,17.75 L 9.625,19.15625 C 8.695,18.91125 7.7400001,18.73 6.8125,18.6875 L 6.9375,17.03125 L 5.84375,18.6875 C 5.005,18.74 4.2125,18.9175 3.46875,19.28125 C 3.27875,19.37125 3.1937499,19.339999 3.1875,19.125 C 3.17,18.61875 3.2174999,17.45625 4.0625,16.71875 C 6.435,14.60375 15.541249,16.43625 19.25,23.6875 C 19.1875,21.47625 17.99375,18.587499 17,18.90625 C 16.8375,18.95875 16.62125,18.8975 16.40625,18.65625 C 14.155,16.22375 10.705,12.67375 6.40625,12.46875 C 6.19625,12.4575 6.1462502,12.37625 6.25,12.1875 C 6.51875,11.69125 7.225,10.5575 8.5625,10.375 C 12.0475,9.875 17.669999,14.662501 19.375,21.65625 C 20.25625,20.05375 19.9075,18.135001 18.96875,17.84375 C 18.80375,17.7925 18.683749,17.70375 18.59375,17.40625 C 18.15125,15.9575 17.708749,14.405 17,12.875 L 18.25,12.0625 L 16.5625,12.0625 C 16.20625,11.395 15.80375,10.72875 15.3125,10.09375 L 16.53125,9.0625 L 14.6875,9.375 C 14.11,8.7375 13.44125,8.12875 12.65625,7.5625 C 12.485,7.44 12.46625,7.31875 12.65625,7.21875 C 13.20625,6.9275 14.6025,6.2899999 16,7.03125 C 17.32,7.7325 18.51875,9.2924999 19.375,11.3125 L 19.375,0 z M 19.375,11.3125 C 19.96875,12.7125 20.393749,14.322501 20.5625,16.03125 C 21.48375,13.05875 22.9825,9.7362502 26.09375,7.5625 C 26.26625,7.44125 26.28375,7.3187501 26.09375,7.21875 C 25.54375,6.92625 24.1775,6.29 22.78125,7.03125 C 21.46125,7.7325 20.232501,9.2925005 19.375,11.3125 z M 74.1875,10.0625 C 71.6625,10.0625 69.1875,11.23625 69.1875,14.4375 C 69.1875,19.17875 75.468751,18.052501 75.46875,20.78125 C 75.46875,22.075 73.993749,22.625001 72.90625,22.625 C 71.7775,22.625 70.6725,22.283751 69.6875,21.75 L 69.40625,24.34375 C 70.8225,24.6925 71.535,24.874999 73.09375,24.875 C 75.9875,24.875 78.468748,23.702499 78.46875,20.5625 C 78.46875,15.76 72.187504,16.795 72.1875,14.3125 C 72.1875,12.7525 73.452496,12.3125 74.4375,12.3125 C 75.4425,12.3125 76.441247,12.5475 77.34375,12.9375 L 77.625,10.59375 C 76.57875,10.245 75.41875,10.0625 74.1875,10.0625 z M 43.03125,10.3125 L 43.03125,24.625 L 46.96875,24.625 C 51.36125,24.625 55.21875,23.15375 55.21875,17.46875 C 55.21875,11.785 51.36125,10.3125 46.96875,10.3125 L 43.03125,10.3125 z M 57,10.3125 L 57,24.625 L 59.875,24.625 L 59.875,18 L 59.90625,18 L 65.0625,24.625 L 68.8125,24.625 L 62.6875,17.0625 L 68.5625,10.3125 L 65.03125,10.3125 L 59.875,16.46875 L 59.875,10.3125 L 57,10.3125 z M 80.125,10.3125 L 80.125,24.625 L 83,24.625 L 83,18.34375 L 88.75,18.34375 L 88.75,24.625 L 91.625,24.625 L 91.625,10.3125 L 88.75,10.3125 L 88.75,16.09375 L 83,16.09375 L 83,10.3125 L 80.125,10.3125 z M 29.6875,10.34375 C 27.057854,10.354787 23.050781,13.008594 20.625,17.1875 C 20.645,17.86875 20.63125,18.558751 20.5625,19.25 C 21.0425,19.33125 21.316249,19.346249 21.65625,19 C 22.66625,17.9075 24.04375,16.53125 25.65625,15.3125 L 24.75,13.9375 L 26.4375,14.75 C 27.14125,14.26625 27.8625,13.83375 28.625,13.46875 L 27.96875,12.03125 L 29.5,13.09375 C 30.42375,12.7375 31.385001,12.51375 32.34375,12.46875 C 32.55375,12.4575 32.603749,12.37625 32.5,12.1875 C 32.23125,11.69125 31.525,10.55625 30.1875,10.375 C 30.025078,10.351641 29.86281,10.343014 29.6875,10.34375 z M 45.90625,12.5625 L 47.5,12.5625 C 49.9,12.5625 52.21875,14.35 52.21875,17.46875 C 52.21875,20.58875 49.9,22.374999 47.5,22.375 L 45.90625,22.375 L 45.90625,12.5625 z"
       transform="translate(329.19318,514.80415)"
       id="path7268"
       style="fill:#cc233d;fill-opacity:1;fill-rule:nonzero;stroke:none" />
  </g>
</svg>
